# MagicaVoxel @ Ephtracy

# group
o 

# material
mtllib rifle.mtl
usemtl palette

# normals
vn -1 0 0
vn 1 0 0
vn 0 0 1
vn 0 0 -1
vn 0 -1 0
vn 0 1 0

# texcoords
vt 0.369141 0.5
vt 0.994141 0.5

# verts
v -0.4 0.2 0.2
v -0.4 0.2 0.1
v -0.4 0.2 0
v -0.4 0.2 -0.1
v -0.4 0.3 0.2
v -0.4 0.3 0.1
v -0.4 0.3 0
v -0.4 0.3 -0.1
v -0.4 0.3 -0.3
v -0.4 0.4 0.2
v -0.4 0.4 -0.3
v -0.3 0.2 0.2
v -0.3 0.2 0.1
v -0.3 0.2 0
v -0.3 0.2 -0.1
v -0.3 0.3 0.2
v -0.3 0.3 0.1
v -0.3 0.3 0
v -0.3 0.3 -0.1
v -0.3 0.3 -0.3
v -0.3 0.4 0.2
v -0.3 0.4 -0.3
v -0.4 0.2 0.2
v -0.4 0.3 0.2
v -0.4 0.4 0.2
v -0.3 0.2 0.2
v -0.3 0.3 0.2
v -0.3 0.4 0.2
v -0.4 0.2 0
v -0.4 0.3 0
v -0.3 0.2 0
v -0.3 0.3 0
v -0.4 0.2 0.1
v -0.4 0.3 0.1
v -0.3 0.2 0.1
v -0.3 0.3 0.1
v -0.4 0.2 -0.1
v -0.4 0.3 -0.1
v -0.3 0.2 -0.1
v -0.3 0.3 -0.1
v -0.4 0.3 -0.3
v -0.4 0.4 -0.3
v -0.3 0.3 -0.3
v -0.3 0.4 -0.3
v -0.4 0.2 0.2
v -0.3 0.2 0.2
v -0.4 0.2 0.1
v -0.3 0.2 0.1
v -0.4 0.2 0
v -0.3 0.2 0
v -0.4 0.2 -0.1
v -0.3 0.2 -0.1
v -0.4 0.3 0.1
v -0.3 0.3 0.1
v -0.4 0.3 0
v -0.3 0.3 0
v -0.4 0.3 -0.1
v -0.3 0.3 -0.1
v -0.4 0.3 -0.3
v -0.3 0.3 -0.3
v -0.4 0.4 0.2
v -0.3 0.4 0.2
v -0.4 0.4 -0.3
v -0.3 0.4 -0.3

# faces
f 5/1/1 2/1/1 1/1/1
f 6/1/1 2/1/1 5/1/1
f 7/1/1 4/1/1 3/1/1
f 8/1/1 4/1/1 7/1/1
f 10/2/1 6/2/1 5/2/1
f 10/2/1 9/2/1 8/2/1
f 10/2/1 8/2/1 7/2/1
f 10/2/1 7/2/1 6/2/1
f 11/2/1 9/2/1 10/2/1
f 12/1/2 13/1/2 16/1/2
f 16/1/2 13/1/2 17/1/2
f 14/1/2 15/1/2 18/1/2
f 18/1/2 15/1/2 19/1/2
f 16/2/2 17/2/2 21/2/2
f 19/2/2 20/2/2 21/2/2
f 18/2/2 19/2/2 21/2/2
f 17/2/2 18/2/2 21/2/2
f 21/2/2 20/2/2 22/2/2
f 26/1/3 24/1/3 23/1/3
f 27/2/3 25/2/3 24/2/3
f 27/1/3 24/1/3 26/1/3
f 28/2/3 25/2/3 27/2/3
f 31/1/3 30/1/3 29/1/3
f 32/1/3 30/1/3 31/1/3
f 33/1/4 34/1/4 35/1/4
f 35/1/4 34/1/4 36/1/4
f 37/1/4 38/1/4 39/1/4
f 39/1/4 38/1/4 40/1/4
f 41/2/4 42/2/4 43/2/4
f 43/2/4 42/2/4 44/2/4
f 47/1/5 46/1/5 45/1/5
f 48/1/5 46/1/5 47/1/5
f 51/1/5 50/1/5 49/1/5
f 52/1/5 50/1/5 51/1/5
f 55/2/5 54/2/5 53/2/5
f 56/2/5 54/2/5 55/2/5
f 59/2/5 58/2/5 57/2/5
f 60/2/5 58/2/5 59/2/5
f 61/2/6 62/2/6 63/2/6
f 63/2/6 62/2/6 64/2/6
